<?xml version="1.0" encoding="utf-8"?>
<!-- Generator: Adobe Illustrator 25.0.0, SVG Export Plug-In . SVG Version: 6.00 Build 0)  -->
<svg version="1.1" id="Layer_1" xmlns="http://www.w3.org/2000/svg" xmlns:xlink="http://www.w3.org/1999/xlink" x="0px" y="0px"
	 viewBox="0 0 486.5 103.31" style="enable-background:new 0 0 486.5 103.31;" xml:space="preserve">
<style type="text/css">
	.st0{fill:#2B3356;}
	.st1{fill:#BF2028;}
</style>
<g>
	<path class="st0" d="M165.87,14.52l-8.63,24.94h17.25L165.87,14.52z M177.74,49.02H154l-3.93,11.36h-12.56l21.44-59.7h13.92
		l21.44,59.7h-12.64L177.74,49.02z"/>
	<polygon class="st0" points="250.76,0.68 250.76,60.38 238.8,60.38 211.73,19.47 211.73,60.38 199.77,60.38 199.77,0.68 
		211.73,0.68 238.8,41.68 238.8,0.68 	"/>
	<path class="st0" d="M261.61,0.77h11.96v36.9c0,8.2,4.44,12.47,12.04,12.47c7.69,0,12.13-4.27,12.13-12.47V0.77h12.04v36.81
		c0,15.72-11.27,23.4-24.34,23.4c-13.07,0-23.83-7.69-23.83-23.4V0.77z"/>
	<path class="st0" d="M342.49,10.68h-9.99v17.51h9.99c6.66,0,9.65-3.5,9.65-8.88C352.14,14.01,349.15,10.68,342.49,10.68
		 M342.92,0.77c14.35,0,21.52,8.28,21.52,18.28c0,7.26-4.01,14.6-13.58,17.17l14.26,24.17h-13.84l-13.15-23.23h-5.64v23.23h-11.96
		V0.77H342.92z"/>
	<path class="st0" d="M398.24,14.52l-8.63,24.94h17.25L398.24,14.52z M410.11,49.02h-23.74l-3.93,11.36h-12.56l21.44-59.7h13.92
		l21.44,59.7h-12.64L410.11,49.02z"/>
	<path class="st0" d="M485.04,18.7h-13.75c-2.73-5.04-7.69-7.69-14.01-7.69c-10.68,0-18.11,7.6-18.11,19.47
		c0,12.13,7.52,19.65,18.62,19.65c9.23,0,15.12-5.3,16.91-13.75h-20.5v-9.14h32.28v10.42c-2.39,12.13-13.24,23.23-29.12,23.23
		c-17.34,0-30.49-12.56-30.49-30.41C426.88,12.64,440.03,0,457.29,0C470.61,0,481.2,6.75,485.04,18.7"/>
	<path class="st0" d="M137.52,75.23h5.57v17.2c0,3.82,2.07,5.82,5.61,5.82c3.59,0,5.65-1.99,5.65-5.82v-17.2h5.62V92.4
		c0,7.33-5.26,10.91-11.35,10.91c-6.09,0-11.11-3.59-11.11-10.91V75.23z"/>
	<polygon class="st0" points="203.45,75.19 203.45,103.03 197.87,103.03 185.25,83.95 185.25,103.03 179.67,103.03 179.67,75.19 
		185.25,75.19 197.87,94.31 197.87,75.19 	"/>
	<rect x="223.3" y="75.23" class="st0" width="5.58" height="27.79"/>
	<polygon class="st0" points="267.07,75.23 273.01,75.23 262.81,103.03 256.04,103.03 245.85,75.23 251.82,75.23 259.46,97.33 	"/>
	<polygon class="st0" points="306.19,79.73 295.63,79.73 295.63,86.7 304.99,86.7 304.99,91.12 295.63,91.12 295.63,98.49 
		306.19,98.49 306.19,103.03 290.06,103.03 290.06,75.19 306.19,75.19 	"/>
	<path class="st0" d="M335.58,79.85h-4.66v8.16h4.66c3.11,0,4.5-1.63,4.5-4.14C340.08,81.41,338.68,79.85,335.58,79.85
		 M335.77,75.23c6.69,0,10.04,3.86,10.04,8.52c0,3.39-1.87,6.81-6.33,8l6.65,11.27h-6.45l-6.13-10.83h-2.63v10.83h-5.57V75.23
		H335.77z"/>
	<path class="st0" d="M373.8,103.31c-5.77,0-10.23-3.03-10.31-8.28h5.97c0.16,2.23,1.63,3.71,4.22,3.71c2.63,0,4.18-1.4,4.18-3.39
		c0-6.01-14.34-2.39-14.29-12.46c0-5.02,4.06-8.04,9.8-8.04c5.69,0,9.59,2.91,9.96,7.92h-6.13c-0.12-1.83-1.59-3.26-3.98-3.3
		c-2.19-0.08-3.82,1-3.82,3.27c0,5.58,14.26,2.47,14.26,12.27C383.64,99.37,380.13,103.31,373.8,103.31"/>
	<rect x="402.52" y="75.23" class="st0" width="5.58" height="27.79"/>
	<polygon class="st0" points="425.39,75.23 445.77,75.23 445.77,79.73 438.37,79.73 438.37,103.03 432.79,103.03 432.79,79.73 
		425.39,79.73 	"/>
	<polygon class="st0" points="462.09,75.23 468.38,75.23 474.35,87.94 480.28,75.23 486.5,75.23 477.1,93.35 477.1,103.03 
		471.52,103.03 471.52,93.35 	"/>
	<path class="st1" d="M23.72,23.45c0-7.57-0.94-12.71-4.6-17.18C15.7,2.09,9.42,0.84,8.64,0.7C8.61,0.69,8.59,0.69,8.57,0.69h12.56
		h30.11L23.72,49.33V23.45z"/>
	<path class="st0" d="M88.19,102.98c-0.03,0.01-0.05,0.03-0.08,0.04h32l-10.17-19.1C105.1,92.5,97.42,99.28,88.19,102.98"/>
	<path class="st0" d="M45.62,87.53c-2.3-5.65-2.88-15.96,0.26-22.47c2.57-5.34,18.43-33,22.2-39.58l5.9,10.47V21.49L62.21,0.68
		h-4.29c-0.06,0.06-0.11,0.15-0.15,0.26L0,103.03h59.3C53.07,99.85,48.08,94.38,45.62,87.53"/>
	<path class="st1" d="M108.39,0.69H68.51c0.51,0.08,11.28,3.84,11.28,15.61v40.62l-0.01-0.01c0,16.07-11.99,29.34-27.51,31.36
		c3.7,7.14,11.16,12.02,19.76,12.02c20.84,0,37.73-16.89,37.73-37.73c0-9.45-0.01-32.26-0.01-39.12c0-7.57,0.95-12.71,4.6-17.18
		c3.65-4.46,10.56-5.59,10.56-5.59H108.39z"/>
</g>
</svg>
